<svg width="407" height="281" viewBox="0 0 407 281" fill="none" xmlns="http://www.w3.org/2000/svg">
<path d="M97.3144 140.591C98.884 121.886 100.463 102.966 102.033 83.8597L101.603 13.9797C95.5673 16.7719 89.4758 19.7416 83.4217 22.8326L83.6366 74.6333L83.3376 80.8247L81.7961 81.0395C76.9472 81.7025 72.1076 82.4309 67.3988 83.2154L65.0351 83.6076C65.0351 83.6076 66.3338 67.3773 66.8943 60.4014C61.4288 62.0076 55.9913 63.7259 50.6659 65.5189L50.0119 86.4745L48.5731 86.7733C46.6112 87.1936 44.6492 87.6138 42.6965 88.0527L41.8557 113.425C44.5557 113.043 47.2652 112.669 49.9932 112.305L51.9459 112.043L52.1047 114.004C52.74 121.746 53.366 129.553 54.0013 137.425C58.5606 136.492 63.3254 135.464 68.221 134.381C67.7352 126.91 66.6608 110.306 66.6608 110.306L68.4266 110.101C72.3318 109.643 76.2652 109.204 80.2265 108.775L82.3753 108.551L81.1327 139.293C86.2993 139.695 91.7275 140.124 97.3144 140.591Z" fill="white"/>
<path d="M9.05316 73.466L11.7626 72.1306L11.6411 97.8675C12.6782 111.548 13.7339 125.808 14.7803 140.292C20.6382 139.695 26.8231 138.994 33.2136 138.21C30.8032 121.102 28.4021 104.638 26.0757 89.2387L26.0477 89.0333V88.8278C26.5896 81.2823 27.1128 73.6714 27.636 65.9952L27.72 64.8559L28.7758 64.4076C41.9491 58.8419 55.7484 53.8738 69.8093 49.6435L70.5567 27.642C45.4059 36.1213 21.6846 47.7664 0 62.2878C0.429768 67.2652 0.850194 72.308 1.27996 77.4162C3.83988 76.0808 6.43718 74.7547 9.05316 73.466Z" fill="white"/>
<path d="M205.224 98.6612C209.998 90.9383 214.024 84.4574 217.836 78.378L217.145 9.96418C213.613 6.43422 210.315 3.16575 207.073 0C199.459 0.112062 191.742 0.466924 184.1 1.05525C180.858 3.82878 177.476 6.7424 174.047 9.74006L173.355 86.9041C176.84 90.929 180.503 95.1967 184.511 99.9126C191.499 99.4364 198.459 99.0161 205.224 98.6612ZM190.453 29.9112L192.013 29.6778C195.787 29.1174 199.599 28.5945 203.355 28.1276L205.56 27.8474L203.374 73.3166L201.776 73.4753C198.441 73.8208 195.049 74.1944 191.677 74.5773L189.556 74.8294L190.453 29.9112Z" fill="white"/>
<path d="M163.667 93.385C159.883 90.5461 156.202 87.838 152.708 85.3072L151.176 84.2053L152.306 82.6831C155.763 78.0139 159.238 73.3073 162.714 68.6007L164.199 11.944C160.752 8.29263 157.351 4.76268 154.072 1.42883C141.973 6.64905 129.304 12.663 116.374 19.3214C115.327 55.4427 114.3 91.3679 113.253 127.06L122.839 128.152L133.751 115.06L133.649 97.3259L139.609 95.9811L140.338 96.7189C142.664 99.0535 144.991 101.425 147.326 103.825L147.803 104.32C147.803 104.32 148.335 112.071 148.933 120.822L154.352 128.096L164.526 116.75L163.667 93.385ZM147.28 59.1874C145.533 64.0061 143.785 68.8061 142.048 73.5874L141.637 74.6987L140.45 74.8108C138.488 74.9789 136.517 75.1656 134.555 75.3524L132.546 75.5485L131.537 33.8334L132.976 33.4599C136.05 32.6661 139.142 31.891 142.178 31.1626L144.234 30.6677L144.467 32.7688C145.439 41.2575 146.411 49.7836 147.382 58.3376L147.429 58.7766L147.28 59.1874Z" fill="white"/>
<path d="M250.508 128.684L265.802 108.158L278.966 123.941C281.377 109.363 283.75 95.1966 286.039 81.7118L284.693 13.905C277.995 12.3922 271.193 11.0568 264.41 9.92679C265.158 28.5104 266.652 65.6496 266.652 65.6496V65.7617C265.597 78.378 264.55 91.0503 263.504 103.76L263.326 105.927L261.215 105.432C257.758 104.619 254.301 103.816 250.844 103.022L249.48 102.705L247.042 62.8387L247.07 62.6706C249.191 45.7586 251.312 28.968 253.442 12.2988C246.061 8.77816 238.792 5.47233 231.776 2.46533C230.692 23.0941 229.608 43.7602 228.515 64.4543C230.524 80.2644 232.533 96.0371 234.532 111.754L250.508 128.684Z" fill="white"/>
<path d="M344.291 136.893C345.655 125.649 347 114.593 348.355 103.713C347.972 93.5344 347.589 83.2994 347.215 73.027C340.591 71.2527 333.818 69.5904 327.016 68.0776L326.194 86.8013C329.389 86.8667 332.566 86.9787 335.686 87.1095L337.536 87.1935L336.863 107.888L335.2 108.018C331.043 108.345 326.736 108.737 322.419 109.186L320.887 109.354L320.439 107.878C318.383 101.173 316.263 94.1507 314.142 87.0348L314.048 86.7359L315.59 38.9041L317.692 39.2497C321.635 39.894 325.577 40.6224 329.417 41.3975L330.809 41.6777L331.715 54.4621C335.733 56.0123 339.797 57.6372 343.833 59.2901C343.039 50.1383 342.235 40.9119 341.432 31.6108C332.426 25.4287 323.55 19.5548 315.029 14.1384C310.236 15.9127 305.275 17.9672 300.258 20.2738C298.913 45.936 297.558 71.813 296.213 97.9141C299.109 112.529 301.977 126.761 304.734 140.236C319.383 138.873 332.36 137.771 344.291 136.893Z" fill="white"/>
<path d="M373.076 102.303L372.917 99.9499L375.244 100.333C379.569 101.033 383.886 101.799 388.071 102.602L389.669 102.91L389.585 104.535C389.024 115.302 388.464 126.191 387.903 137.192C393.004 137.93 397.975 138.593 402.73 139.172C403.973 127.881 405.215 116.871 406.43 106.403L406.037 62.8107C400.843 59.7664 395.471 56.8995 390.015 54.2753L390.117 83.5329L387.511 82.4309C383.39 80.694 379.149 78.9757 374.898 77.3228L373.609 76.8185L373.711 75.4457C374.459 65.136 375.206 54.9664 375.944 44.9275C369.918 41.2014 363.743 37.5781 357.548 34.1509L357.745 86.4558C358.688 104.32 359.622 121.979 360.547 139.414C365.649 138.313 370.628 137.304 375.393 136.417C374.618 125.192 373.851 113.818 373.076 102.303Z" fill="white"/>
<path d="M102.873 244.715C102.649 235.946 102.537 231.567 102.313 222.807C103.088 222.807 103.481 222.807 104.247 222.826C105.686 222.845 107.124 222.854 108.563 222.854C110.376 222.854 112.216 222.854 114.057 222.817C114.3 215.579 114.43 211.956 114.673 204.719C110.665 205.045 106.704 205.326 102.855 205.531C102.061 205.578 101.668 205.596 100.874 205.643V186.835C101.584 186.789 101.939 186.77 102.64 186.733C106.05 186.546 109.619 186.331 113.207 186.06C114.001 186.004 114.393 185.967 115.187 185.911C115.225 188.862 115.243 190.347 115.281 193.298C118.074 192.905 120.924 192.466 123.792 192.018C124.082 182.876 124.231 178.309 124.53 169.167C113.141 169.512 101.771 169.746 90.3821 169.849C89.5599 200.908 88.7378 231.968 87.8969 263.037C100.173 265.447 112.151 267.258 124.586 268.603V240.952C117.878 242.362 111.291 243.529 104.957 244.417C104.125 244.538 103.714 244.594 102.873 244.715Z" fill="white"/>
<path d="M67.1185 211.284C66.2216 211.106 65.7825 211.022 64.8856 210.845C60.9243 210.06 56.9443 209.22 53.0577 208.333C52.4317 208.193 52.114 208.118 51.4787 207.978C51.4787 207.978 52.6466 194.894 53.1604 189.077C49.0216 188.255 44.8921 187.368 40.8186 186.462C40.6504 193.951 40.557 197.687 40.3795 205.176C39.4639 204.924 39.0061 204.803 38.0812 204.56C36.0912 204.037 34.1011 203.486 32.1298 202.926C32.6156 208.043 33.0921 213.207 33.578 218.4C35.5213 219.212 37.4832 220.024 39.4452 220.809C39.9124 220.996 40.1366 221.089 40.5944 221.266C40.7065 229.531 40.7532 233.659 40.856 241.923C44.1446 243.268 47.4987 244.557 50.8621 245.771C51.0022 237.627 51.077 233.565 51.2171 225.422C52.2075 225.777 52.7026 225.954 53.6836 226.319C57.4674 227.682 61.3354 229.017 65.2126 230.278C65.7452 230.446 66.0068 230.53 66.5393 230.708C66.2216 240.252 66.0535 245.024 65.7358 254.567C69.6037 255.427 73.5557 256.211 77.5451 256.883C78.6569 226.375 79.7593 195.866 80.8524 165.357C76.1904 165.749 71.5844 166.076 67.1185 166.347V211.284Z" fill="white"/>
<path d="M22.4974 195.763V174.303C23.4224 174.518 23.8802 174.621 24.7957 174.835C34.9794 177.226 45.2378 179.243 55.5055 181.214C55.739 174.929 55.8512 171.782 56.0754 165.488C37.3524 162.565 18.6669 159.446 0 156.177C0.33634 160.37 0.67268 164.6 1.00902 168.859C3.34472 169.494 5.6991 170.129 8.03479 170.726C8.59536 170.876 8.87564 170.951 9.43621 171.1C9.39884 178.814 9.38015 182.68 9.35213 190.393C10.221 202.309 11.0805 214.225 11.9307 226.141C16.4994 228.644 21.2081 231.035 25.9823 233.238C24.8331 220.772 23.6746 208.314 22.5068 195.847C22.5068 195.81 22.5068 195.8 22.4974 195.763Z" fill="white"/>
<path d="M145.131 171.128L133.686 180.989C133.555 194.521 133.434 208.062 133.312 221.603C134.265 238.86 135.209 256.108 136.152 273.366C140.067 274.272 144.01 275.103 147.915 275.869C147.85 256.893 147.794 237.926 147.728 218.95C148.728 202.757 149.727 186.564 150.727 170.381C148.849 170.633 146.981 170.885 145.131 171.128Z" fill="white"/>
<path d="M189.92 236.796C189.705 236.385 189.602 236.171 189.397 235.76C189.677 235.396 189.827 235.218 190.116 234.854C192.919 231.287 195.713 227.71 198.515 224.087C198.207 210.789 197.89 197.491 197.581 184.193C197.217 183.324 196.871 182.521 196.553 181.765H196.544L176.579 175.33L171.823 172.23C168.105 172.884 164.386 173.519 160.659 174.126C159.827 208.837 158.996 243.539 158.164 278.25C163.686 278.596 169.291 278.82 174.878 278.904C174.813 268.248 174.757 257.593 174.701 246.938L174.747 245.397C176.177 245.126 176.896 244.986 178.335 244.725C178.578 245.257 178.699 245.519 178.942 246.06C181.138 250.86 183.333 255.679 185.538 260.488C185.604 260.628 185.641 260.694 185.697 260.834C185.809 268.753 185.856 272.712 185.959 280.631C190.892 280.473 195.881 280.22 200.842 279.856C200.384 270.434 200.16 265.718 199.702 256.286C196.441 249.824 193.181 243.315 189.92 236.796ZM186.538 215.159C185.109 218.969 183.67 222.761 182.24 226.543C182.053 227.047 181.96 227.29 181.764 227.785C181.231 227.766 180.96 227.766 180.419 227.747C178.784 227.682 177.158 227.607 175.523 227.533C174.822 227.495 174.477 227.477 173.785 227.449C173.505 215.617 173.225 203.775 172.944 191.944C173.645 191.888 173.991 191.869 174.701 191.813C177.214 191.617 179.727 191.421 182.24 191.196C182.969 191.131 183.333 191.103 184.053 191.038C185.118 200.526 185.641 205.27 186.697 214.748C186.641 214.916 186.603 214.991 186.538 215.159Z" fill="white"/>
<path d="M244.65 254.129C244.417 244.473 244.192 234.817 243.959 225.161C244.818 225.273 245.257 225.329 246.117 225.431C249.443 225.842 252.788 226.225 256.058 226.561C256.301 219.109 256.422 215.383 256.665 207.931C252.713 209.061 248.77 210.154 244.949 211.2C244.005 211.452 243.529 211.582 242.585 211.844V191.449C243.165 191.318 243.464 191.252 244.043 191.122C247.658 190.319 251.265 189.506 254.871 188.675C255.777 188.46 256.235 188.358 257.141 188.152C257.179 191.234 257.197 192.784 257.235 195.866C260.084 194.941 262.943 194.017 265.783 193.083C265.513 185.836 265.354 181.232 265.139 175.405L258.15 169.382C249.891 170.698 236.886 173.061 236.886 173.061L231.01 179.393C231.01 179.393 229.73 243.1 228.805 277.876C233.682 278.241 238.577 278.493 243.361 278.651C251.031 276.438 258.879 273.954 266.68 271.246V243.128C259.926 246.62 253.563 249.814 247.275 252.859C246.229 253.372 245.697 253.634 244.65 254.138V254.129Z" fill="white"/>
<path d="M302.753 198.891C302.725 198.985 302.706 199.031 302.687 199.125C301.267 204.28 299.829 209.472 298.408 214.701C297.857 216.728 297.577 217.746 297.026 219.772C296.176 217.849 295.746 216.887 294.886 214.972C292.392 209.36 289.822 203.477 287.235 197.5C287.16 197.323 287.122 197.238 287.057 197.07C287.066 196.884 287.076 196.79 287.094 196.603C287.954 187.48 288.813 178.356 289.682 169.242C286.067 169.634 282.479 170.007 278.938 170.381L274.388 181.718C274.454 190.216 274.519 198.705 274.575 207.193C279.489 216.009 284.422 224.815 289.552 233.519C289.673 233.733 289.738 233.845 289.869 234.06C289.159 239.364 288.804 242.017 288.094 247.33C287.496 247.386 287.197 247.414 286.599 247.47C283.198 247.76 279.76 248.021 276.331 248.227C276.145 257.182 276.042 261.655 275.855 270.602C284.441 269.257 293.008 267.576 301.37 265.587C301.669 255.912 301.968 246.228 302.267 236.554C302.304 236.451 302.323 236.395 302.36 236.292C306.527 224.432 310.76 212.591 315.085 200.796C316.001 189.394 316.917 177.992 317.841 166.599C312.965 166.543 307.938 166.44 302.837 166.3C302.809 177.161 302.781 188.031 302.753 198.891Z" fill="white"/>
<path d="M339.909 234.499C339.638 224.628 339.507 219.698 339.236 209.827C339.937 209.761 340.283 209.733 340.984 209.668C344.197 209.388 347.411 209.052 350.569 208.678C350.784 203.01 350.887 200.18 351.111 194.521C347.589 195.931 344.048 197.351 340.498 198.751C339.47 199.153 338.956 199.358 337.938 199.76V182.073C338.452 181.905 338.713 181.821 339.236 181.662C342.647 180.588 346.029 179.523 349.401 178.449C350.373 178.141 350.85 177.983 351.821 177.684C351.849 180.13 351.868 181.344 351.905 183.791C354.988 182.512 356.53 181.877 359.613 180.597C359.286 173.248 359.127 169.569 358.8 162.219C356.511 162.695 355.362 162.929 353.073 163.396C344.73 165.123 336.265 166.86 327.707 168.597C326.829 198.284 325.951 227.962 325.082 257.64C329.529 256.622 333.958 255.492 338.265 254.269C345.627 250.104 353.092 245.677 360.454 241.092V220.538C353.755 225.123 348.056 228.999 342.74 232.585C341.61 233.35 341.04 233.733 339.909 234.499Z" fill="white"/>
<path d="M386.436 191.775C385.259 192.177 384.68 192.373 383.512 192.775C383.699 191.561 383.792 190.963 383.988 189.749C384.605 185.799 385.222 181.886 385.848 178.02C385.913 177.609 385.941 177.413 386.006 177.002C390.155 175.293 392.229 174.434 396.377 172.725C396.377 172.725 395.284 178.477 395.05 179.682C397.629 178.87 400.198 178.039 402.711 177.198V160.155C399.965 160.221 397.143 160.258 394.312 160.258C389.052 160.258 383.549 160.137 377.934 159.894C375.262 171.744 372.646 183.614 370.086 195.492C371.759 197.556 373.422 199.545 375.047 201.441C380.261 200.059 385.455 198.527 390.472 196.893C391.341 196.613 391.771 196.473 392.64 196.193C392.752 197.08 392.808 197.528 392.911 198.424C393.387 202.403 393.864 206.325 394.331 210.219C394.396 210.695 394.424 210.938 394.48 211.414C394.06 211.657 393.845 211.778 393.425 212.021C389.239 214.44 384.96 216.831 380.69 219.137C379.42 219.819 378.784 220.164 377.514 220.856C377.514 220.856 378.542 212.189 378.841 209.649C375.29 211.069 371.675 212.451 368.059 213.777C367.639 221.901 367.209 230.073 366.788 238.3C377.168 234.004 386.987 229.419 396.928 224.189C400.086 218.558 403.197 213.151 406.196 208.108C405.766 200.544 405.327 192.877 404.898 185.108C398.881 187.433 392.677 189.665 386.436 191.775Z" fill="white"/>
<path d="M181.979 164.012L198.403 169.307L229.16 162.154L247.444 143.878L243.538 139.545L237.176 132.476L228.366 122.689L217.435 118.375L210.876 115.788L188.341 118.711L167.946 130.888L161.854 138.733L157.856 143.878L165.283 153.142L181.979 164.012ZM184.894 136.986L187.276 131.15L194.975 124.267L207.952 125.313L216.846 132.289L217.762 133.008L219.621 141.207L214.847 153.674L210.605 158.96H197.88L191.518 154.72L184.894 145.979V136.986Z" fill="white"/>
<path d="M265.933 124.93L258.86 134.437L259.281 135.221L270.688 130.627L265.933 124.93Z" fill="white"/>
<path d="M279.77 140.918L260.449 144.457V146.054L279.77 148.781V140.918Z" fill="white"/>
<path d="M258.86 156.812L268.895 165.469L271.641 158.605L259.281 156.168L258.86 156.812Z" fill="white"/>
<path d="M139.301 124.93L134.545 130.627L145.953 135.221L146.373 134.437L139.301 124.93Z" fill="white"/>
<path d="M125.464 148.781L144.794 146.054V144.457L125.464 140.918V148.781Z" fill="white"/>
<path d="M133.592 158.605L136.339 165.469L146.373 156.812L145.953 156.168L133.592 158.605Z" fill="white"/>
</svg>
